<svg xmlns="http://www.w3.org/2000/svg" viewBox="0 0 17.5 17.5"><title>47</title><path d="M7.55,9.19A.74.74,0,0,0,8.08,9l3.17-3.17V16.39a.75.75,0,0,0,1.5,0V5.81L15.91,9a.77.77,0,0,0,.53.21A.74.74,0,0,0,17,9a.75.75,0,0,0,0-1.07L12.53,3.47a.75.75,0,0,0-1.06,0L7,7.91A.77.77,0,0,0,7,9,.77.77,0,0,0,7.55,9.19Z" transform="translate(-3.25 -3.25)"/><path d="M20,15.69a.76.76,0,0,0-.75.75,2.81,2.81,0,0,1-2.81,2.81H7.56a2.81,2.81,0,0,1-2.81-2.81.75.75,0,0,0-1.5,0,4.32,4.32,0,0,0,4.31,4.31h8.88a4.32,4.32,0,0,0,4.31-4.31A.76.76,0,0,0,20,15.69Z" transform="translate(-3.25 -3.25)"/></svg>