<svg xmlns="http://www.w3.org/2000/svg" viewBox="0 0 19.5 19.5"><title>30</title><path d="M12,11.2a.9.9,0,0,0-.8.8v4.4a.9.9,0,0,0,.8.8.8.8,0,0,0,.7-.8V12A.8.8,0,0,0,12,11.2Z" transform="translate(-2.3 -2.3)"/><path d="M12,7.6h0a1,1,0,0,0-1.1,1.1,1,1,0,0,0,1.1,1h0a1,1,0,0,0,1.1-1A1.1,1.1,0,0,0,12,7.6Zm0,1.5a.4.4,0,0,1-.4-.4.5.5,0,0,1,.4-.5h0a.5.5,0,0,1,.4.5.4.4,0,0,1-.4.4" transform="translate(-2.3 -2.3)"/><path d="M12,2.2A9.8,9.8,0,1,0,21.8,12,9.8,9.8,0,0,0,12,2.2Zm0,18A8.2,8.2,0,1,1,20.2,12,8.2,8.2,0,0,1,12,20.2Z" transform="translate(-2.3 -2.3)"/></svg>