<svg xmlns="http://www.w3.org/2000/svg" viewBox="0 0 20.5 19.5"><title>42</title><path d="M11.25,14.25h-2v-2a.75.75,0,0,0-1.5,0v2h-2a.75.75,0,0,0,0,1.5h2v2a.75.75,0,0,0,1.5,0v-2h2a.75.75,0,0,0,0-1.5Z" transform="translate(-1.75 -2.25)"/><path d="M20.5,2.25h-10A1.76,1.76,0,0,0,8.75,4V8.25H3.5A1.75,1.75,0,0,0,1.75,10V20A1.75,1.75,0,0,0,3.5,21.75h10A1.76,1.76,0,0,0,15.25,20V15.75H20.5A1.75,1.75,0,0,0,22.25,14V4A1.75,1.75,0,0,0,20.5,2.25ZM13.75,20a.25.25,0,0,1-.25.25H3.5A.25.25,0,0,1,3.25,20V10a.25.25,0,0,1,.25-.25h10a.24.24,0,0,1,.25.25Zm7-6a.25.25,0,0,1-.25.25H15.25V10a1.74,1.74,0,0,0-1.07-1.61,1.72,1.72,0,0,0-.68-.14H10.25V4a.25.25,0,0,1,.25-.25h10a.25.25,0,0,1,.25.25Z" transform="translate(-1.75 -2.25)"/></svg>