<svg xmlns="http://www.w3.org/2000/svg" viewBox="0 0 19.5 19.5"><title>Icon_Profile_02</title><path d="M12,6.42a3,3,0,1,0,3,3A3,3,0,0,0,12,6.42Zm0,4.44a1.47,1.47,0,1,1,1.47-1.47A1.47,1.47,0,0,1,12,10.86Z" transform="translate(-2.25 -2.25)"/><path d="M12,2.25A9.75,9.75,0,1,0,21.75,12,9.76,9.76,0,0,0,12,2.25ZM7.27,18.75a.7.7,0,0,0,0-.14v-.39c0-1.54,1.62-2.8,3.61-2.8h2.18c2,0,3.61,1.26,3.61,2.8v.39a.7.7,0,0,0,0,.14,8.21,8.21,0,0,1-9.46,0Zm10.84-1.23a4.92,4.92,0,0,0-5-3.6H10.91a4.92,4.92,0,0,0-5,3.6A8.24,8.24,0,1,1,20.25,12,8.18,8.18,0,0,1,18.11,17.52Z" transform="translate(-2.25 -2.25)"/></svg>