<svg xmlns="http://www.w3.org/2000/svg" viewBox="0 0 15.942 15.613"><title>36</title><path d="M19.525,5.933,18.218,4.627a1.562,1.562,0,0,0-2.16,0l-7.821,7.82h0a2.291,2.291,0,0,0-.675,1.635v1.759a.75.75,0,0,0,.75.75h1.764a2.3,2.3,0,0,0,1.628-.676l7.822-7.823A1.53,1.53,0,0,0,19.525,5.933Zm-8.881,8.921a.824.824,0,0,1-.571.238H9.061V14.081a.809.809,0,0,1,.236-.573l5.851-5.821,1.331,1.331Zm6.9-6.9L16.211,6.629l.947-.942,1.306,1.346Z" transform="translate(-4.029 -4.194)"/><path d="M17.279,11.749a.75.75,0,0,0-.75.75v5.807h-11v-11H11.5a.75.75,0,0,0,0-1.5H4.779a.75.75,0,0,0-.75.75v12.5a.75.75,0,0,0,.75.75h12.5a.75.75,0,0,0,.75-.75V12.5A.75.75,0,0,0,17.279,11.749Z" transform="translate(-4.029 -4.194)"/></svg>