<svg xmlns="http://www.w3.org/2000/svg" viewBox="0 0 18.5 16.5"><title>26</title><path d="M12,8.8A4.2,4.2,0,0,0,7.8,13,4.3,4.3,0,0,0,12,17.3,4.3,4.3,0,0,0,16.2,13,4.2,4.2,0,0,0,12,8.8Zm0,7A2.9,2.9,0,0,1,9.2,13a2.8,2.8,0,0,1,5.6,0A2.9,2.9,0,0,1,12,15.8Z" transform="translate(-2.8 -3.8)"/><path d="M18.6,6.6H17.1l-1.2-2a1.6,1.6,0,0,0-1.4-.8h-5A1.8,1.8,0,0,0,8,4.6l-1.2,2H5.4A2.5,2.5,0,0,0,2.8,9.2v8.4a2.6,2.6,0,0,0,.7,1.9,2.7,2.7,0,0,0,1.9.8H18.6a2.7,2.7,0,0,0,1.9-.8,2.6,2.6,0,0,0,.7-1.9V9.2h0A2.5,2.5,0,0,0,18.6,6.6Zm1.2,11a2,2,0,0,1-.4.8,1.2,1.2,0,0,1-.8.4H5.4a1.5,1.5,0,0,1-.8-.4,2,2,0,0,1-.4-.8V9.2A1.3,1.3,0,0,1,5.4,8.1H7.3a.8.8,0,0,0,.6-.4L9.3,5.3h5.3l1.5,2.4a.8.8,0,0,0,.6.4h1.9a1.3,1.3,0,0,1,1.2,1.1Z" transform="translate(-2.8 -3.8)"/></svg>