<svg xmlns="http://www.w3.org/2000/svg" viewBox="0 0 19.3 17.5"><title>27</title><path d="M18.9,3.2H5.1A2.8,2.8,0,0,0,2.4,6V18a2.8,2.8,0,0,0,2.2,2.7H18.9A2.7,2.7,0,0,0,21.6,18V6A2.8,2.8,0,0,0,18.9,3.2ZM3.9,6A1.2,1.2,0,0,1,5.1,4.8H18.9A1.2,1.2,0,0,1,20.1,6v8l-2.5-2a1.6,1.6,0,0,0-2.3.2l-3,3.7h-.2l-1.6-1.3a1.8,1.8,0,0,0-2.3.2L4.6,19.1A1.2,1.2,0,0,1,3.9,18Zm15,13.2H6.5l2.9-3.4c0-.1.1-.1.1,0l1.7,1.3a1.7,1.7,0,0,0,1.2.4,2.4,2.4,0,0,0,1.1-.6l3-3.7h.2l3.4,2.8V18A1.2,1.2,0,0,1,18.9,19.2Z" transform="translate(-2.4 -3.3)"/><path d="M8.4,11.9A2.6,2.6,0,0,0,11,9.3a2.6,2.6,0,0,0-5.1,0A2.6,2.6,0,0,0,8.4,11.9Zm0-3.6a1.1,1.1,0,0,1,1.1,1,1.1,1.1,0,0,1-1.1,1.1,1.1,1.1,0,0,1-1-1.1A1.1,1.1,0,0,1,8.4,8.3Z" transform="translate(-2.4 -3.3)"/></svg>