<svg xmlns="http://www.w3.org/2000/svg" viewBox="0 0 18.9 16.6"><title>15</title><path d="M12,11.5a4,4,0,0,0,3.9-3.9A3.9,3.9,0,0,0,12,3.8,3.8,3.8,0,0,0,8.2,7.6,3.9,3.9,0,0,0,12,11.5Zm0-6.3A2.4,2.4,0,1,1,12,10,2.3,2.3,0,0,1,9.7,7.6,2.3,2.3,0,0,1,12,5.2Z" transform="translate(-4.1 -3.8)"/><path d="M12,12.6h0c-3.9,0-7.8,2-7.8,5.2H4.1v.9a1.7,1.7,0,0,0,1.7,1.6H18.2a1.7,1.7,0,0,0,1.7-1.6v-.9h0C19.8,14.5,15.8,12.6,12,12.6Zm6.2,6.2H5.8c-.1,0-.2,0-.2-.1v-.9h0c0-2.3,3.3-3.7,6.4-3.7h0c3.1,0,6.4,1.4,6.4,3.7h0v.9C18.4,18.8,18.3,18.8,18.2,18.8Z" transform="translate(-4.1 -3.8)"/><path d="M22.3,6.5H18.8a.8.8,0,0,0-.8.7.9.9,0,0,0,.8.8h3.5a.9.9,0,0,0,.8-.8A.8.8,0,0,0,22.3,6.5Z" transform="translate(-4.1 -3.8)"/></svg>