<svg xmlns="http://www.w3.org/2000/svg" viewBox="0 0 214 52"><title>14</title><path d="M121.5,145a2.8,2.8,0,0,1-1.5-.4,3,3,0,0,1-1.1-4.1L129.4,122H105.5a3,3,0,0,1-2.6-1.5,3.2,3.2,0,0,1,0-3l13-23a3,3,0,0,1,5.2,3L110.6,116h23.9a3,3,0,0,1,2.6,1.5,3.2,3.2,0,0,1,0,3l-13,23A2.9,2.9,0,0,1,121.5,145Z" transform="translate(-13 -93)"/><path d="M224,121H170.7a2.9,2.9,0,0,1-3-3,3,3,0,0,1,3-3H224a3,3,0,0,1,3,3A2.9,2.9,0,0,1,224,121Z" transform="translate(-13 -93)"/><path d="M224,141.9H170.7a3,3,0,0,1,0-6H224a3,3,0,0,1,0,6Z" transform="translate(-13 -93)"/><path d="M69.3,141.9H16a3,3,0,0,1,0-6H69.3a3,3,0,0,1,0,6Z" transform="translate(-13 -93)"/><path d="M69.3,121H16a2.9,2.9,0,0,1-3-3,3,3,0,0,1,3-3H69.3a3,3,0,0,1,3,3A2.9,2.9,0,0,1,69.3,121Z" transform="translate(-13 -93)"/></svg>