<svg xmlns="http://www.w3.org/2000/svg" viewBox="0 0 118 158"><title>16</title><path d="M168,199H72a11,11,0,0,1-11-11V52A11,11,0,0,1,72,41h96a11,11,0,0,1,11,11V188A11,11,0,0,1,168,199ZM72,47a5,5,0,0,0-5,5V188a5,5,0,0,0,5,5h96a5,5,0,0,0,5-5V52a5,5,0,0,0-5-5Z" transform="translate(-61 -41)"/><path d="M150,181H90a11,11,0,0,1-11-11v-8a11,11,0,0,1,11-11h60a11,11,0,0,1,11,11v8A11,11,0,0,1,150,181ZM90,157a5,5,0,0,0-5,5v8a5,5,0,0,0,5,5h60a5,5,0,0,0,5-5v-8a5,5,0,0,0-5-5Z" transform="translate(-61 -41)"/><path d="M128,169a3,3,0,0,1-3-3h0a3,3,0,0,1,3-3,2.9,2.9,0,0,1,3,3h0A2.9,2.9,0,0,1,128,169Z" transform="translate(-61 -41)"/><path d="M100,169a3,3,0,0,1-3-3h0a3,3,0,0,1,3-3,2.9,2.9,0,0,1,3,3h0A2.9,2.9,0,0,1,100,169Z" transform="translate(-61 -41)"/><path d="M150,135H90a11,11,0,0,1-11-11v-8a11,11,0,0,1,11-11h60a11,11,0,0,1,11,11v8A11,11,0,0,1,150,135ZM90,111a5,5,0,0,0-5,5v8a5,5,0,0,0,5,5h60a5,5,0,0,0,5-5v-8a5,5,0,0,0-5-5Z" transform="translate(-61 -41)"/><path d="M144,123a3,3,0,0,1-3-3h0a3,3,0,0,1,3-3,2.9,2.9,0,0,1,3,3h0A2.9,2.9,0,0,1,144,123Z" transform="translate(-61 -41)"/><path d="M112,123a3,3,0,0,1-3-3h0a3,3,0,0,1,3-3,2.9,2.9,0,0,1,3,3h0A2.9,2.9,0,0,1,112,123Z" transform="translate(-61 -41)"/><path d="M150,89H90A11,11,0,0,1,79,78V70A11,11,0,0,1,90,59h60a11,11,0,0,1,11,11v8A11,11,0,0,1,150,89ZM90,65a5,5,0,0,0-5,5v8a5,5,0,0,0,5,5h60a5,5,0,0,0,5-5V70a5,5,0,0,0-5-5Z" transform="translate(-61 -41)"/><path d="M144,77a3,3,0,0,1-3-3h0a3,3,0,0,1,3-3,2.9,2.9,0,0,1,3,3h0A2.9,2.9,0,0,1,144,77Z" transform="translate(-61 -41)"/><path d="M132,77a3,3,0,0,1-3-3h0a3,3,0,0,1,3-3,2.9,2.9,0,0,1,3,3h0A2.9,2.9,0,0,1,132,77Z" transform="translate(-61 -41)"/></svg>