<svg xmlns="http://www.w3.org/2000/svg" viewBox="0 0 110 210"><title>17</title><path d="M103.2,156.2a34.1,34.1,0,0,0,12.7,4.6,3.1,3.1,0,0,0,3.4-2.4,3.1,3.1,0,0,0-2-3.5l-2.1-.9a6.6,6.6,0,0,1-3.2-5.8c0-3.2,1.9-5.6,4.3-8.6a33.1,33.1,0,0,0,5.8-9.1c3,3.3,6.9,8.8,6.9,15.8h0a10.2,10.2,0,0,1-1.9,6.6,5.9,5.9,0,0,1-3.3,2.1,3.2,3.2,0,0,0-2.3,3.4,3,3,0,0,0,3,2.5h.2a27.6,27.6,0,0,0,18.9-9.2c0-.1.1-.2.1-.3a33.9,33.9,0,0,0,6.5-21.7c-.1-30.5-26.2-50.5-27.8-51.7a3,3,0,0,0-2.9-.4,3.1,3.1,0,0,0-1.9,3.5,18.1,18.1,0,0,1-1.1,11.5,26.5,26.5,0,0,0-4.8-5.8,2.9,2.9,0,0,0-3.2-.5,2.9,2.9,0,0,0-1.8,2.7,46.5,46.5,0,0,1-.6,7.5,42.2,42.2,0,0,1-7.3,17.3,37.8,37.8,0,0,0-8,20v.3A25.5,25.5,0,0,0,103.2,156.2Zm.3-38.6h.1A48.2,48.2,0,0,0,112,97.6c0-.2.1-.4.1-.7s1,2,1.4,3a2.8,2.8,0,0,0,2.4,1.8,2.6,2.6,0,0,0,2.7-1.1A23.4,23.4,0,0,0,124,87.5c7.5,7.1,20.2,22.3,20.2,42.4h0a28.5,28.5,0,0,1-5.2,17.9,21.7,21.7,0,0,1-4.7,3.9,17.6,17.6,0,0,0,.7-5.6c0-14.3-12.2-23.3-12.7-23.7a3.2,3.2,0,0,0-3-.3,3.3,3.3,0,0,0-1.8,2.3c-.7,4.9-3.2,8-5.8,11.3s-5.7,7.1-5.7,12.3a10.2,10.2,0,0,0,.3,3h0a19.6,19.6,0,0,1-9.5-16.8A31.9,31.9,0,0,1,103.5,117.6Z" transform="translate(-65 -15)"/><path d="M164,63H145V18a3,3,0,0,0-6,0V63H101V18a3,3,0,0,0-6,0V63H76A11.1,11.1,0,0,0,65,74.1V193.9A11,11,0,0,0,75.9,205H95v17a3,3,0,0,0,6,0V205h38v17a3,3,0,0,0,6,0V205h19.2A11,11,0,0,0,175,194V74.1A11.1,11.1,0,0,0,164,63ZM71,74.1A5,5,0,0,1,76,69h88a5,5,0,0,1,5,5.1v91.8a5,5,0,0,1-5,5.1H76a5,5,0,0,1-5-5.1V74.1ZM164.1,199H75.9a5,5,0,0,1-4.9-5V175.8a10.6,10.6,0,0,0,5,1.2h88a10.6,10.6,0,0,0,5-1.2V194A5,5,0,0,1,164.1,199Z" transform="translate(-65 -15)"/></svg>