<svg xmlns="http://www.w3.org/2000/svg" viewBox="0 0 151 106"><title>18</title><path d="M49.5,173h0a3,3,0,0,1-3-3l.3-89.5a13.3,13.3,0,1,1,26.5.1l.2,79.2a7.4,7.4,0,0,0,2,5.1,7.5,7.5,0,0,0,5.1,2.1h.2a7.4,7.4,0,0,0,7.2-7.5l.2-79a13.3,13.3,0,1,1,26.6.1l.2,78.9a7.3,7.3,0,1,0,14.5,0V81.2a1.3,1.3,0,0,1-.1-.6,13.3,13.3,0,1,1,26.5,0v77.7a2.5,2.5,0,0,1,.2,1.2,7.3,7.3,0,1,0,14.6,0l.3-79a13.3,13.3,0,1,1,26.5.1,3,3,0,0,1-3,2.9h0a3,3,0,0,1-3-3,7.3,7.3,0,1,0-14.5,0l-.3,79a13.3,13.3,0,0,1-26.5,1.2,2.4,2.4,0,0,1-.3-1.2v-79a7.3,7.3,0,0,0-14.5-.6,1.3,1.3,0,0,1,.1.6v79a13.3,13.3,0,1,1-26.5-.1l-.2-78.9a7.3,7.3,0,1,0-14.6,0l-.2,79A13.4,13.4,0,0,1,80.8,173h-.3a13.1,13.1,0,0,1-9.3-3.9,13.6,13.6,0,0,1-3.7-9.4l-.2-79.2A7.4,7.4,0,0,0,60,73a7.4,7.4,0,0,0-7.2,7.5L52.5,170A2.9,2.9,0,0,1,49.5,173Z" transform="translate(-46.5 -67)"/></svg>