<svg xmlns="http://www.w3.org/2000/svg" viewBox="0 0 214.8 123"><title>23</title><path d="M15.6,106.5h76a3,3,0,0,0,2.9-2.2,2.8,2.8,0,0,0-1.3-3.3l-38-24A2.7,2.7,0,0,0,52,77L14,101a3,3,0,0,0,1.6,5.5ZM53.6,83l27.7,17.5H26Z" transform="translate(-12.6 -58.5)"/><path d="M91.6,157.5h-76a3,3,0,1,0,0,6h76a3,3,0,0,0,0-6Z" transform="translate(-12.6 -58.5)"/><path d="M21.6,145.5a3,3,0,1,0,0,6h64a3,3,0,0,0,0-6h-5v-27a3.1,3.1,0,0,0,2.9-3,3,3,0,0,0-3-3H74.8a3,3,0,0,0-.2,6v27h-18v-27a3.1,3.1,0,0,0,2.9-3,3,3,0,0,0-3-3H50.8a3,3,0,0,0-.2,6v27h-18v-27a3.1,3.1,0,0,0,2.9-3,3,3,0,0,0-3-3H26.8a3,3,0,0,0-.2,6v27Z" transform="translate(-12.6 -58.5)"/><path d="M174.5,181.5H157.2a3,3,0,0,1-3-3V165.3a45.8,45.8,0,0,1-12.1-5.1l-9.4,9.4a3.3,3.3,0,0,1-2.1.9h0a3.1,3.1,0,0,1-2.1-.9l-12.2-12.2a3,3,0,0,1,0-4.3l9.3-9.3a48.2,48.2,0,0,1-5-12.2H107.4a2.9,2.9,0,0,1-3-3V111.4a2.9,2.9,0,0,1,3-3h13.2a48.2,48.2,0,0,1,5-12.2l-9.3-9.4a2.9,2.9,0,0,1,0-4.2l12.2-12.2a3.1,3.1,0,0,1,4.2,0l9.4,9.4a45.8,45.8,0,0,1,12.1-5.1V61.5a3,3,0,0,1,3-3h17.3a3,3,0,0,1,3,3V74.7a45.1,45.1,0,0,1,12.2,5.1l9.3-9.4a3.2,3.2,0,0,1,4.3,0l12.2,12.2a3.3,3.3,0,0,1,.9,2.1,3.1,3.1,0,0,1-.9,2.1l-9.4,9.4a45.1,45.1,0,0,1,5.1,12.2h13.2a3,3,0,0,1,3,3v17.2a3,3,0,0,1-3,3H211.2a45.1,45.1,0,0,1-5.1,12.2l9.4,9.3a3.6,3.6,0,0,1,.9,2.2,3.3,3.3,0,0,1-.9,2.1l-12.2,12.2a3.2,3.2,0,0,1-4.3,0l-9.3-9.4a45.1,45.1,0,0,1-12.2,5.1v13.2A3,3,0,0,1,174.5,181.5Zm-14.3-6h11.3V162.9a3,3,0,0,1,2.4-3,38.5,38.5,0,0,0,14.5-6,3,3,0,0,1,3.8.4l9,8.9,7.9-7.9-8.9-9a3,3,0,0,1-.4-3.8,38.5,38.5,0,0,0,6-14.5,3,3,0,0,1,3-2.4h12.6V114.4H208.8a3,3,0,0,1-3-2.4,39,39,0,0,0-6-14.6,2.9,2.9,0,0,1,.4-3.7l8.9-9-7.9-7.9-9,8.9a3,3,0,0,1-3.8.4,38.5,38.5,0,0,0-14.5-6,3,3,0,0,1-2.4-3V64.5H160.2V77.1a3,3,0,0,1-2.4,3,38.5,38.5,0,0,0-14.5,6,3,3,0,0,1-3.8-.4l-8.9-8.9-8,7.9,9,9a2.9,2.9,0,0,1,.3,3.7,42.5,42.5,0,0,0-6,14.6,3,3,0,0,1-2.9,2.4H110.4v11.2H123a3,3,0,0,1,2.9,2.4,42.1,42.1,0,0,0,6,14.5,3,3,0,0,1-.3,3.8l-9,9,8,7.9,8.9-8.9a3,3,0,0,1,3.8-.4,38.5,38.5,0,0,0,14.5,6,3,3,0,0,1,2.4,3Zm5.6-35a20.5,20.5,0,0,1,0-41h.1a20.3,20.3,0,0,1,14.5,6,20.5,20.5,0,0,1-14.4,35Zm.1-35a14.6,14.6,0,0,0-10.3,24.8,14.2,14.2,0,0,0,10.1,4.2h.2a14.5,14.5,0,0,0,10.2-24.8,14.5,14.5,0,0,0-10.2-4.2Z" transform="translate(-12.6 -58.5)"/></svg>