<svg xmlns="http://www.w3.org/2000/svg" viewBox="0 0 148 168"><title>27</title><path d="M167.6,95.4a3.1,3.1,0,0,0-4.1-1.1l-19.9,11.5,4.7-17.7a2.8,2.8,0,0,0-2.1-3.6,3,3,0,0,0-3.7,2.1L136.2,110,110,125.2V95.5l17.3-17.3a3,3,0,0,0-4.2-4.2L110,87V64a3,3,0,0,0-6,0V87L91,74a3,3,0,0,0-4.3,0,3.1,3.1,0,0,0,0,4.2L104,95.5v29.7L77.7,110,71.5,86.6a3,3,0,0,0-3.7-2.1,2.8,2.8,0,0,0-2.1,3.6l4.7,17.7L50.5,94.3a3,3,0,0,0-3,5.2l20.1,11.6-18,4.8a3,3,0,0,0-2.1,3.7,3.1,3.1,0,0,0,2.9,2.2h.8l23.7-6.4L100.3,130,74.9,144.7l-23.7-6.4a3,3,0,1,0-1.6,5.8l18,4.8L47.5,160.5a3.1,3.1,0,0,0-1.1,4.1,3,3,0,0,0,2.6,1.5,2.8,2.8,0,0,0,1.5-.4l19.9-11.5-4.7,17.7a2.8,2.8,0,0,0,2.1,3.6l.8.2a3.1,3.1,0,0,0,2.9-2.3L77.8,150,104,134.8v29.7L86.7,181.8a3.1,3.1,0,0,0,0,4.2,3,3,0,0,0,4.3,0l13-13v23a3,3,0,0,0,6,0V173l13.1,13a2.7,2.7,0,0,0,2.1.9,3,3,0,0,0,2.1-.9,2.9,2.9,0,0,0,0-4.2L110,164.5V134.8L136.2,150l6.3,23.4a3.1,3.1,0,0,0,2.9,2.3l.8-.2a2.8,2.8,0,0,0,2.1-3.6l-4.7-17.7,19.9,11.5a2.8,2.8,0,0,0,1.5.4,3,3,0,0,0,2.6-1.5,3.1,3.1,0,0,0-1.1-4.1l-20.1-11.6,18-4.8a3,3,0,1,0-1.6-5.8l-23.7,6.4L113.7,130l25.4-14.7,23.7,6.4h.8a3.1,3.1,0,0,0,2.9-2.2,3,3,0,0,0-2.1-3.7l-18-4.8,20.1-11.6A3.1,3.1,0,0,0,167.6,95.4Z" transform="translate(-46 -31)"/><path d="M178,31a16,16,0,1,0,16,16A16,16,0,0,0,178,31Zm0,26a10,10,0,1,1,10-10A10,10,0,0,1,178,57Z" transform="translate(-46 -31)"/></svg>