<svg xmlns="http://www.w3.org/2000/svg" viewBox="0 0 137 147"><title>35</title><path d="M188.5,120a68.5,68.5,0,0,0-52.3-66.5c-1.7-4.1-6.1-7-9.7-7h-13c-3.5,0-8,2.9-9.7,7A68.4,68.4,0,0,0,72.5,169.3a11.3,11.3,0,0,0-.5,3.2v11a10,10,0,0,0,10,10H93a10,10,0,0,0,9.6-7.2,69.9,69.9,0,0,0,34.8,0,10,10,0,0,0,9.6,7.2h11a10,10,0,0,0,10-10v-11a11.3,11.3,0,0,0-.5-3.2A68.2,68.2,0,0,0,188.5,120ZM96.9,184.5a4.1,4.1,0,0,1-3.9,3H82a4,4,0,0,1-4-4v-9.4a65.4,65.4,0,0,0,15.3,9h.1l2.8,1.1.4.2Zm2.9-5.4-1.5-.5-2-.8-.8-.3-2.3-1.1h-.4A62.5,62.5,0,0,1,106.9,58.9l3-.6h.1a61,61,0,0,1,20,0h.1l3,.6a62.5,62.5,0,0,1,14.1,117.4h-.4l-2.3,1.1-.8.3-2,.8-1.4.5a62.2,62.2,0,0,1-20.3,3.4A61.2,61.2,0,0,1,99.8,179.1Zm62.2-5v9.4a4,4,0,0,1-4,4H147a4.1,4.1,0,0,1-3.9-3h.3l.4-.2,2.8-1.1h.1A65.4,65.4,0,0,0,162,174.1Z" transform="translate(-51.5 -46.5)"/><path d="M132.3,118.2l-9-15.6a3.8,3.8,0,0,0-5.1-1.5,4,4,0,0,0-1.5,1.4l-9,15.7a14.8,14.8,0,0,0-1.4,10.7,14.1,14.1,0,0,0,6.7,8.6,13.7,13.7,0,0,0,7,1.9,14.2,14.2,0,0,0,12.3-21.2Zm-5.2,11.1a8.3,8.3,0,0,1-11.2,3,8.5,8.5,0,0,1-3.8-4.9,8.9,8.9,0,0,1,.8-6.2l7.1-12.3,7.1,12.3A8.3,8.3,0,0,1,127.1,129.3Z" transform="translate(-51.5 -46.5)"/></svg>