<svg xmlns="http://www.w3.org/2000/svg" viewBox="0 0 110.5 179"><title>36</title><path d="M175.2,67.4v-.6c-.1-.1-.1-.2-.2-.4h0l-.3-.5h0l-.3-.4h-.1l-.2-.2-41-32.2a11,11,0,0,0-13.7,0l-41,32.2-.2.2h-.1l-.3.4h0l-.3.5h0c-.1.2-.1.3-.2.4v.6h0v.6h0a.4.4,0,0,1,.1.3h.1v.2l.2.3h.1l.3.4h0l.4.4h.2l.3.2h90.2V198.9a4.7,4.7,0,0,1-4.9,4.6H95.8V82.5a3,3,0,0,0-3-3,2.9,2.9,0,0,0-3,3V90h-19V82.5a3,3,0,0,0-3-3,2.9,2.9,0,0,0-3,3v124a2.9,2.9,0,0,0,3,3,3,3,0,0,0,3-3V188.6h19v14.9H80.2a3,3,0,1,0,0,6h84.3a10.8,10.8,0,0,0,10.7-10.3V67.5ZM89.8,145.5h-19V133h19Zm0-18.5h-19V114.5h19Zm-19,24.5h19v12.6h-19ZM89.8,96v12.5h-19V96Zm-19,86.6V170.1h19v12.5ZM88.9,64.5l34.2-26.9h0a5,5,0,0,1,6.3,0l34.2,26.9Z" transform="translate(-64.8 -30.5)"/></svg>