<svg xmlns="http://www.w3.org/2000/svg" viewBox="0 0 210 169"><title>42</title><path d="M225,119.5a13.9,13.9,0,0,0-13.7-14H28.7a14,14,0,0,0-2.2,27.8V144a49.4,49.4,0,0,0,43,49.1v8.4a3,3,0,0,0,6,0v-8h91v8a3,3,0,0,0,6,0v-8.4a49.4,49.4,0,0,0,43-49.1V132.8A14,14,0,0,0,225,119.5Zm-58.4,68H75.4c-23.7,0-42.9-19.5-42.9-43.5V133.5h177V144C209.5,167.9,190.3,187.5,166.6,187.5Zm44.7-60H28.7a8,8,0,0,1,0-16H211.3a8,8,0,0,1,0,16Z" transform="translate(-15 -35.5)"/><path d="M68,95.5a2.9,2.9,0,0,0,3-3V55.4a14,14,0,0,1,28,0v6.1H91a3,3,0,0,0,0,6h22a3,3,0,0,0,0-6h-8V55.4a20,20,0,0,0-40,0V92.5A2.9,2.9,0,0,0,68,95.5Z" transform="translate(-15 -35.5)"/></svg>