<svg xmlns="http://www.w3.org/2000/svg" viewBox="0 0 166 174"><title>50</title><path d="M192,33H48A11,11,0,0,0,37,44V196a11,11,0,0,0,11,11H192a11,11,0,0,0,11-11V44A11,11,0,0,0,192,33Zm5,163a5,5,0,0,1-5,5H48a5,5,0,0,1-5-5V44a5,5,0,0,1,5-5H192a5,5,0,0,1,5,5Z" transform="translate(-37 -33)"/><circle cx="105" cy="150" r="5"/><circle cx="90" cy="150" r="5"/><circle cx="75" cy="150" r="5"/><circle cx="60" cy="150" r="5"/><path d="M158,117a25,25,0,1,0,25,25A25,25,0,0,0,158,117Zm0,44a19,19,0,1,1,19-19A19,19,0,0,1,158,161Z" transform="translate(-37 -33)"/><path d="M107,142a25,25,0,1,0-25,25A25,25,0,0,0,107,142ZM82,161a19,19,0,1,1,19-19A19,19,0,0,1,82,161Z" transform="translate(-37 -33)"/><path d="M82,103A25,25,0,1,0,57,78,25,25,0,0,0,82,103Zm0-44A19,19,0,1,1,63,78,19,19,0,0,1,82,59Z" transform="translate(-37 -33)"/><path d="M158,53a25,25,0,1,0,25,25A25,25,0,0,0,158,53Zm0,44a19,19,0,1,1,19-19A19,19,0,0,1,158,97Z" transform="translate(-37 -33)"/></svg>