<svg xmlns="http://www.w3.org/2000/svg" viewBox="0 0 212.1 163.7"><title>64</title><path d="M164.8,125.3,122.4,94.7a3,3,0,0,0-3.5-.1L75.3,125.3a2.9,2.9,0,0,0-.8,4.1,3,3,0,0,0,2.5,1.3,3.4,3.4,0,0,0,1.7-.5l10.8-7.6v40.3a2.9,2.9,0,0,0,3,3h55a2.9,2.9,0,0,0,3-3V122.4l10.7,7.7a3,3,0,1,0,3.6-4.8Zm-20.3,34.6h-49V118.4l25.1-17.6,23.9,17.3Z" transform="translate(-14 -38.1)"/><path d="M186,123.3a2.9,2.9,0,0,0-3,3v35.4a3,3,0,0,0,6,0V126.3A2.9,2.9,0,0,0,186,123.3Z" transform="translate(-14 -38.1)"/><path d="M186,180.4a2.9,2.9,0,0,0-3,3v12.5H170.5a2.9,2.9,0,0,0-3,3,3,3,0,0,0,3,3H186a3,3,0,0,0,3-3V183.4A2.9,2.9,0,0,0,186,180.4Z" transform="translate(-14 -38.1)"/><path d="M154.4,195.9H128.1a2.9,2.9,0,0,0-3,3,3,3,0,0,0,3,3h26.3a3.1,3.1,0,0,0,3-3A3,3,0,0,0,154.4,195.9Z" transform="translate(-14 -38.1)"/><path d="M111.9,195.9H85.6a3,3,0,0,0-3,3,3.1,3.1,0,0,0,3,3h26.3a3,3,0,0,0,3-3A2.9,2.9,0,0,0,111.9,195.9Z" transform="translate(-14 -38.1)"/><path d="M69.5,195.9H57V183.4a3,3,0,0,0-6,0v15.5a3,3,0,0,0,3,3H69.5a3,3,0,0,0,3-3A2.9,2.9,0,0,0,69.5,195.9Z" transform="translate(-14 -38.1)"/><path d="M54,123.3a2.9,2.9,0,0,0-3,3v35.4a3,3,0,0,0,6,0V126.3A2.9,2.9,0,0,0,54,123.3Z" transform="translate(-14 -38.1)"/><path d="M51,104.6a3,3,0,0,0,6,0V90.1l7.6-5.4a3,3,0,1,0-3.4-4.9L40.6,94.3a3,3,0,0,0-.8,4.2,3.2,3.2,0,0,0,2.5,1.2,2.6,2.6,0,0,0,1.7-.5l7-4.9Z" transform="translate(-14 -38.1)"/><path d="M224.8,112.1,212.2,103a3,3,0,0,0-4.2.7,3.1,3.1,0,0,0,.7,4.2l12.6,9a2.7,2.7,0,0,0,1.7.6,3,3,0,0,0,2.5-1.2A3.1,3.1,0,0,0,224.8,112.1Z" transform="translate(-14 -38.1)"/><path d="M168.6,75.2a2.9,2.9,0,0,0-.7-4.2L148,56.6a3,3,0,0,0-4.2.7,3.1,3.1,0,0,0,.7,4.2l19.9,14.3a3,3,0,0,0,4.2-.6Z" transform="translate(-14 -38.1)"/><path d="M200,94.2,180.1,79.8a3,3,0,0,0-4.2.7,3.1,3.1,0,0,0,.7,4.2l6.4,4.6v15.3a3,3,0,1,0,6,0v-11l7.5,5.4a3,3,0,0,0,4.2-.6A2.9,2.9,0,0,0,200,94.2Z" transform="translate(-14 -38.1)"/><path d="M134.1,53.2a3,3,0,0,0,2.4-1.2,2.9,2.9,0,0,0-.7-4.2l-12.5-9.1a3,3,0,0,0-3.5,0l-12.7,8.9a2.9,2.9,0,0,0-.7,4.2,3,3,0,0,0,4.1.7l11-7.7,10.8,7.8A3,3,0,0,0,134.1,53.2Z" transform="translate(-14 -38.1)"/><path d="M98.6,57.2a2.8,2.8,0,0,0-4.1-.7L73.8,70.9a3,3,0,0,0,1.8,5.5,2.7,2.7,0,0,0,1.7-.6L97.9,61.4A3,3,0,0,0,98.6,57.2Z" transform="translate(-14 -38.1)"/><path d="M27.9,103.1,15.2,112a3.1,3.1,0,0,0-.7,4.2,2.9,2.9,0,0,0,2.5,1.3,3.4,3.4,0,0,0,1.7-.5l12.7-8.9a3.1,3.1,0,0,0-3.5-5Z" transform="translate(-14 -38.1)"/></svg>