<svg xmlns="http://www.w3.org/2000/svg" viewBox="0 0 150 150"><title>8</title><path d="M192,195H48a2.9,2.9,0,0,1-3-3V48a2.9,2.9,0,0,1,3-3H192a3,3,0,0,1,3,3V192A3,3,0,0,1,192,195ZM51,189H189V51H51Z" transform="translate(-45 -45)"/><path d="M172,175H132a2.9,2.9,0,0,1-3-3V132a2.9,2.9,0,0,1,3-3h40a2.9,2.9,0,0,1,3,3v40A2.9,2.9,0,0,1,172,175Zm-37-6h34V135H135Z" transform="translate(-45 -45)"/><path d="M108,175H68a2.9,2.9,0,0,1-3-3V132a2.9,2.9,0,0,1,3-3h40a2.9,2.9,0,0,1,3,3v40A2.9,2.9,0,0,1,108,175Zm-37-6h34V135H71Z" transform="translate(-45 -45)"/><path d="M172,111H132a2.9,2.9,0,0,1-3-3V68a2.9,2.9,0,0,1,3-3h40a2.9,2.9,0,0,1,3,3v40A2.9,2.9,0,0,1,172,111Zm-37-6h34V71H135Z" transform="translate(-45 -45)"/><path d="M108,111H68a2.9,2.9,0,0,1-3-3V68a2.9,2.9,0,0,1,3-3h40a2.9,2.9,0,0,1,3,3v40A2.9,2.9,0,0,1,108,111Zm-37-6h34V71H71Z" transform="translate(-45 -45)"/></svg>