<svg xmlns="http://www.w3.org/2000/svg" viewBox="0 0 210 134"><title>80</title><path d="M172,181H125V162.8c14.6-1.8,26-16.7,26-34.8s-13-35-29-35a25.3,25.3,0,0,0-11.2,2.7C108.9,71.8,91.3,53,70,53S29,74.1,29,100s16.8,45.1,38,46.9V181H20a3,3,0,0,0,0,6H172a3,3,0,0,0,0-6Zm-61.1-78.4A19.3,19.3,0,0,1,122,99c12.7,0,23,13,23,29s-10.3,29-23,29-20.9-10.5-22.7-24.2A50.1,50.1,0,0,0,110.9,102.6ZM35,100c0-22.6,15.7-41,35-41s35,18.4,35,41-15.7,41-35,41S35,122.6,35,100Zm38,46.9a37.8,37.8,0,0,0,21.2-9c3.3,13.4,13,23.4,24.8,24.9V181H73Z" transform="translate(-17 -53)"/><path d="M224,181H192a3,3,0,0,0,0,6h32a3,3,0,0,0,0-6Z" transform="translate(-17 -53)"/></svg>