<svg xmlns="http://www.w3.org/2000/svg" viewBox="0 0 186 162"><title>85</title><path d="M87.5,175a29.7,29.7,0,0,1-29.6-30,3.1,3.1,0,0,0-3-3,3,3,0,0,0-3,3,35.7,35.7,0,0,0,35.5,36h0a2.9,2.9,0,0,0,3-3A3,3,0,0,0,87.5,175Z" transform="translate(-27 -39)"/><path d="M152.6,59h0A35.8,35.8,0,0,0,117,95a3.1,3.1,0,0,0,3,3h0a3,3,0,0,0,3-3,29.8,29.8,0,0,1,29.6-30,3,3,0,0,0,0-6Z" transform="translate(-27 -39)"/><path d="M212.1,184.5l-7.9-7.8V94.1a51.7,51.7,0,0,0-51.6-51.2h-.5a51.5,51.5,0,0,0-36.4,15.5A51,51,0,0,0,101,95v50a13.6,13.6,0,0,1-27.1,0V63.3l7.9-7.8a2.7,2.7,0,0,0,.9-2.1V42a2.9,2.9,0,0,0-3-3H30a2.9,2.9,0,0,0-3,3V53.4a2.7,2.7,0,0,0,.9,2.1l7.9,7.8V145a52,52,0,0,0,51.6,52.2h.1A52,52,0,0,0,139.1,145V94.5a13.5,13.5,0,0,1,13.7-13.3,13.6,13.6,0,0,1,9.5,4.1,13.3,13.3,0,0,1,3.8,9.7v81.7l-7.9,7.8a2.7,2.7,0,0,0-.9,2.1V198a2.9,2.9,0,0,0,3,3H210a2.9,2.9,0,0,0,3-3V186.6A2.7,2.7,0,0,0,212.1,184.5ZM33,45H76.7v7.1l-7,6.9H40l-7-6.9ZM152.9,75.2A19.4,19.4,0,0,0,139,80.7a18.8,18.8,0,0,0-5.9,13.7V145a46.1,46.1,0,0,1-45.7,46.2A46.1,46.1,0,0,1,41.8,145V65H67.9v80a19.6,19.6,0,0,0,39.1,0V95a45.6,45.6,0,0,1,91.2-.9V175H172.1V95a19.5,19.5,0,0,0-19.2-19.8ZM207,195H163.3v-7.1l7-6.9H200l7,6.9Z" transform="translate(-27 -39)"/></svg>