<svg xmlns="http://www.w3.org/2000/svg" viewBox="0 0 114 168"><title>89</title><path d="M130.9,75.1c.1.2.3.3.4.4h.3l.3.2s.2,0,.2.1h2l.3-.2h.3c.1-.1.3-.2.4-.4l8-8a3,3,0,0,0-4.2-4.2L136,65.8V39a3,3,0,0,0-6,0V65.8l-2.9-2.9a3,3,0,0,0-4.2,4.2Z" transform="translate(-63 -36)"/><path d="M99,50a2.9,2.9,0,0,0,2.1-.9l2.9-2.9V73a3,3,0,0,0,6,0V46.2l2.9,2.9a3,3,0,1,0,4.2-4.2l-8-8c-.1-.2-.3-.3-.4-.4h-.3l-.3-.2h-.5a2.4,2.4,0,0,0-1.2,0h-.5l-.3.2h-.3c-.1.1-.3.2-.4.4l-8,8A3,3,0,0,0,99,50Z" transform="translate(-63 -36)"/><path d="M173.8,57.3a11.1,11.1,0,0,0-7.9-3.3H152a3,3,0,0,0,0,6h13.9a5.1,5.1,0,0,1,3.6,1.5,5.2,5.2,0,0,1,1.5,3.8V192.8a5.2,5.2,0,0,1-5.1,5.2H161V99.3A11,11,0,0,0,150.3,88H89.7A11,11,0,0,0,79,99.2V198H74.1a5.2,5.2,0,0,1-5.1-5.3V65.2A5.2,5.2,0,0,1,74.1,60H88a3,3,0,0,0,0-6H74.1A11.2,11.2,0,0,0,63,65.3V192.7A11.2,11.2,0,0,0,74.1,204h91.8A11.2,11.2,0,0,0,177,192.7V65.3A11.3,11.3,0,0,0,173.8,57.3ZM155,99.2V198H123V94h27.2A5,5,0,0,1,155,99.2Zm-70-.1A5,5,0,0,1,89.7,94H117V198H85Z" transform="translate(-63 -36)"/></svg>