<svg xmlns="http://www.w3.org/2000/svg" viewBox="0 0 162 162"><title>92</title><path d="M200.9,41.4v-.2a.4.4,0,0,1-.1-.3l-.2-.3c0-.1-.1-.2-.1-.3a3,3,0,0,0-.8-.8h-.3l-.3-.2H40.9l-.3.2h-.3l-.8.8c0,.1-.1.2-.1.3l-.2.3a.4.4,0,0,1-.1.3v.2a1.3,1.3,0,0,0-.1.6V198a2.9,2.9,0,0,0,3,3H198a2.9,2.9,0,0,0,3-3V42A1.3,1.3,0,0,0,200.9,41.4ZM195,190.5l-37-36.7c0-.1-.1-.1-.2-.2V86.4l.2-.2,37-37ZM79.2,45,90.4,64.6H68.8L49.2,45Zm111.6,0L171.2,64.6H151.5L164.3,45Zm-37,37c-.1,0-.1.1-.2.2H140.1l7.5-11.6h17.6ZM70.5,166.2V147.9l11.7-5.4v12.1ZM45,93.6l19.3,5.5V118L45,119.1Zm37.2,4.2L70.3,94.5v-20L82,86.2l.2.2Zm0,6.3v13.2l-1.3-.2-10.5.6v-17ZM45,125.1,64.4,124v20.1l-19.5,9Zm25.4-1.4,10.8-.6,1-.2v13l-11.7,5.4Zm16-41.5-.2-.2L74.8,70.6H93.9l6.6,11.6Zm46.5,0h-9.1V70.6h16.7l-7.4,11.3Zm-15.1,0H107.4V82l-6.6-11.4h17Zm-29.6,6h63.6v63.6H88.2Zm56.2-23.6H123.8V45h33.3Zm-26.6,0H97.3L86.1,45h31.7ZM64.2,68.5V92.8L45,87.4V49.2ZM45,159.6h.2l19.3-8.9v21.5L45,191.8ZM87.2,158v-.2h66.3c.1.1.1.2.2.2L191,195H50.2Z" transform="translate(-39 -39)"/></svg>