<svg xmlns="http://www.w3.org/2000/svg" viewBox="0 0 116 152"><title>93</title><path d="M97.2,196H65a3.1,3.1,0,0,1-3-3V47a3,3,0,0,1,3-3h54.4a117.3,117.3,0,0,1,22.1,2.1,50.9,50.9,0,0,1,18.7,7.6,39.2,39.2,0,0,1,13,14.7A50.7,50.7,0,0,1,178,91.3a53.5,53.5,0,0,1-4.4,22.7,37.7,37.7,0,0,1-12.4,15,49,49,0,0,1-18.3,7.9,109,109,0,0,1-22.1,2.2H100.2V193A2.9,2.9,0,0,1,97.2,196ZM68,190H94.2V136.1a3,3,0,0,1,3-3h23.6a98.2,98.2,0,0,0,20.9-2.1,43.5,43.5,0,0,0,16.1-6.9,31.7,31.7,0,0,0,10.3-12.6A47.4,47.4,0,0,0,172,91.4v-.2a43.5,43.5,0,0,0-4.2-20.1,32.6,32.6,0,0,0-10.9-12.4A45.4,45.4,0,0,0,140.3,52a105,105,0,0,0-20.9-2H68Zm50.9-78.1H97.3a3,3,0,0,1-3-3V74.2a3,3,0,0,1,.8-2.1,3.1,3.1,0,0,1,2.2-.9h16.5c3.3,0,6.6.2,9.8.5a31,31,0,0,1,9.9,2.7,19.5,19.5,0,0,1,7.8,6.1h.1a18.4,18.4,0,0,1,3.1,10.7,20.4,20.4,0,0,1-2.3,10,17.9,17.9,0,0,1-6.3,6.5,26.4,26.4,0,0,1-8.2,3.2A43.1,43.1,0,0,1,118.9,111.9Zm-18.6-6h18.5a39.4,39.4,0,0,0,7.7-.8,19.2,19.2,0,0,0,6.3-2.4,12.1,12.1,0,0,0,4.1-4.3,13.9,13.9,0,0,0,1.6-7v-.2a12,12,0,0,0-2-7.1,15.2,15.2,0,0,0-5.4-4.3,28.5,28.5,0,0,0-8.1-2.1c-3.1-.3-6.2-.5-9.2-.5H100.3Z" transform="translate(-62 -44)"/></svg>