<svg xmlns="http://www.w3.org/2000/svg" viewBox="0 0 214 130"><title>1_area_without_rectangle_line_styles_responsive</title><path d="M224,173H195V145h17a3,3,0,0,0,0-6H195V111h17a3,3,0,0,0,0-6H195V77h17a3,3,0,0,0,0-6H195V52a3,3,0,0,0-6,0V71H123V52a3,3,0,0,0-6,0V71H51V52a3,3,0,0,0-6,0V71H28a3,3,0,0,0,0,6H45v28H28a3,3,0,0,0,0,6H45v28H28a3,3,0,0,0,0,6H45v28H16a3,3,0,0,0,0,6H224a3,3,0,0,0,0-6Zm-35,0H123V145h66Zm0-34H123V111h66Zm0-62v28H123V77ZM51,77h66v28H51Zm0,34h66v28H51Zm0,34h66v28H51Z" transform="translate(-13 -49)"/></svg>