<svg xmlns="http://www.w3.org/2000/svg" viewBox="0 0 214 126"><title>12</title><path d="M97.9,102.9h0a3,3,0,0,0,3-3,18.9,18.9,0,0,1,19-18.9h0a18.9,18.9,0,0,1,18.9,18.9,3.1,3.1,0,0,0,3,3h0a3,3,0,0,0,3-3A24.9,24.9,0,0,0,119.9,75h0a25.1,25.1,0,0,0-25,24.9A3.1,3.1,0,0,0,97.9,102.9Z" transform="translate(-13 -53)"/><path d="M119.9,67.8a3.1,3.1,0,0,0,3-3V56a3,3,0,0,0-3-3,2.9,2.9,0,0,0-3,3v8.8A3,3,0,0,0,119.9,67.8Z" transform="translate(-13 -53)"/><path d="M152,99.9a3,3,0,0,0,3,3h8.8a3.1,3.1,0,0,0,3-3,3,3,0,0,0-3-3H155A2.9,2.9,0,0,0,152,99.9Z" transform="translate(-13 -53)"/><path d="M76,102.9h8.8a3.1,3.1,0,0,0,3-3,3,3,0,0,0-3-3H76a2.9,2.9,0,0,0-3,3A3,3,0,0,0,76,102.9Z" transform="translate(-13 -53)"/><path d="M91.4,75.7a3.1,3.1,0,0,0,2.2.9,3,3,0,0,0,2.1-.9,3.2,3.2,0,0,0,0-4.3L91.3,67A3,3,0,0,0,87,71.3Z" transform="translate(-13 -53)"/><path d="M146.2,76.6a2.7,2.7,0,0,0,2.1-.9l4.4-4.4a3,3,0,0,0,0-4.3,3.1,3.1,0,0,0-4.2,0l-4.4,4.4a3,3,0,0,0,0,4.3A3,3,0,0,0,146.2,76.6Z" transform="translate(-13 -53)"/><path d="M226.9,157.6v-.2a4.2,4.2,0,0,0-.4-1L195,110.5a2.8,2.8,0,0,0-2.4-1.3H47.4a2.8,2.8,0,0,0-2.4,1.3L13.5,156.4v.3l-.2.3c0,.1-.1.2-.1.3a.9.9,0,0,1-.1.5v.2h0v4.8a15.5,15.5,0,0,0,9.1,14,18.8,18.8,0,0,0,8.6,2.1H53.3a18.1,18.1,0,0,0,14.6-7.6A18,18,0,0,0,82.5,179H105a18.2,18.2,0,0,0,15-7.6,18,18,0,0,0,14.6,7.6H157a17.8,17.8,0,0,0,15.1-7.6,18,18,0,0,0,14.6,7.6h22.5a18.2,18.2,0,0,0,8.6-2.1,15.6,15.6,0,0,0,9.2-14h0v-4.7h0A.9.9,0,0,0,226.9,157.6ZM191,115.2l27.3,39.9h-44l-15.5-39.9Zm-39.1,0,15.6,39.9H123.2l-.2-39.9Zm-35.1,39.9H72.5L88,115.2h28.7ZM49,115.2H81.2L65.7,155.1h-44Zm15.7,47.7a8.4,8.4,0,0,1-.7,3.5A12.2,12.2,0,0,1,52.9,173H30.8a13.9,13.9,0,0,1-6-1.4h-.1a9.8,9.8,0,0,1-5.7-8.7v-1.7H64.7Zm52.1-.1a8.6,8.6,0,0,1-.7,3.6A12.2,12.2,0,0,1,105,173H82.8a11.9,11.9,0,0,1-10.9-6.6,8.6,8.6,0,0,1-.8-3.6v-1.7h45.7Zm52.1,0a9.5,9.5,0,0,1-.7,3.5,12.1,12.1,0,0,1-11.1,6.7H134.9a12.1,12.1,0,0,1-11-6.6,8.6,8.6,0,0,1-.7-3.6v-1.7h45.7Zm52.1,0a9.8,9.8,0,0,1-5.7,8.7h-.1a13.9,13.9,0,0,1-6,1.4H187a12.1,12.1,0,0,1-11-6.6,8.6,8.6,0,0,1-.7-3.6v-1.7H221Z" transform="translate(-13 -53)"/></svg>