<svg xmlns="http://www.w3.org/2000/svg" viewBox="0 0 214 166.5"><title>2</title><path d="M225.8,117.6l-104-80.2a2.7,2.7,0,0,0-3.6,0L70.6,74.1V56.9a3,3,0,0,0-3-3h-23a3.1,3.1,0,0,0-3,3V96.4L14.2,117.6a3,3,0,0,0-.6,4.2l17.3,23a3.3,3.3,0,0,0,2.1,1.1,2.9,2.9,0,0,0,2.2-.6l6.5-5.1v60.1a3,3,0,0,0,3,3,3.1,3.1,0,0,0,3-3V136.4a2.9,2.9,0,0,0-.2-.9L120,78l72.3,57.4v61.5a3,3,0,0,0,3,3,2.9,2.9,0,0,0,3-3V140.2l6.5,5.1a3.2,3.2,0,0,0,1.9.7h.3a2.9,2.9,0,0,0,2-1.1l17.4-23A3,3,0,0,0,225.8,117.6ZM47.6,59.9h17V78.7l-17,13.1Zm158.5,78.8L121.9,71.8a3.5,3.5,0,0,0-1.9-.6,3.3,3.3,0,0,0-1.9.6L33.9,138.7,20.2,120.6,120,43.5l99.8,77.1Z" transform="translate(-13 -36.7)"/></svg>