<svg xmlns="http://www.w3.org/2000/svg" viewBox="0 0 212.5 135.5"><title>21</title><path d="M22.8,58.2h38a3,3,0,0,0,3-3,3.1,3.1,0,0,0-3-3h-38a3,3,0,0,0-3,3A2.9,2.9,0,0,0,22.8,58.2Z" transform="translate(-13.7 -52.3)"/><path d="M35.8,71.2a2.9,2.9,0,0,0,3,3h36a3,3,0,0,0,3-3,3.1,3.1,0,0,0-3-3h-36A3,3,0,0,0,35.8,71.2Z" transform="translate(-13.7 -52.3)"/><path d="M36.8,84.2a3,3,0,0,0-3,3,2.9,2.9,0,0,0,3,3h18a3,3,0,0,0,3-3,3.1,3.1,0,0,0-3-3Z" transform="translate(-13.7 -52.3)"/><path d="M97.8,84.2h-32a3,3,0,0,0-3,3,2.9,2.9,0,0,0,3,3h32a3,3,0,0,0,3-3A3.1,3.1,0,0,0,97.8,84.2Z" transform="translate(-13.7 -52.3)"/><path d="M164.8,105.7h-.1a20.4,20.4,0,0,0-14.4,6,20.4,20.4,0,0,0,0,29.1,20.4,20.4,0,0,0,14.4,5.9h.2a19.8,19.8,0,0,0,14.3-6,20.1,20.1,0,0,0,6-14.5,20.5,20.5,0,0,0-20.4-20.5ZM175,136.5a14.5,14.5,0,0,1-10.2,4.2h-.2a14.2,14.2,0,0,1-10.1-4.2,14.4,14.4,0,0,1,0-20.5,14.6,14.6,0,0,1,10.2-4.3h.1A14.1,14.1,0,0,1,175,116a14.6,14.6,0,0,1,0,20.5Z" transform="translate(-13.7 -52.3)"/><path d="M223.2,114.6H210a47.5,47.5,0,0,0-5-12.1l9.3-9.4a2.9,2.9,0,0,0,.9-2.1,2.7,2.7,0,0,0-.9-2.1L202.2,76.7a3,3,0,0,0-4.3,0L188.5,86a47.5,47.5,0,0,0-12.1-5V67.8a3,3,0,0,0-3-3H156.1a3,3,0,0,0-3,3V81a49.8,49.8,0,0,0-12.2,5l-9.3-9.3a3,3,0,0,0-4.3,0L115.2,88.9a2.9,2.9,0,0,0,0,4.2l9.3,9.4a47.5,47.5,0,0,0-5,12.1H106.2a3.1,3.1,0,0,0-3,3v17.3a3.1,3.1,0,0,0,3,3h13.3a47.5,47.5,0,0,0,5,12.1l-9.3,9.4a2.9,2.9,0,0,0,0,4.2l12.1,12.2a3.1,3.1,0,0,0,2.2.9,2.9,2.9,0,0,0,2.1-.9l9.3-9.3a48.2,48.2,0,0,0,12.2,5v13.3a3.1,3.1,0,0,0,3,3h17.3a3.1,3.1,0,0,0,3-3V171.5a47.5,47.5,0,0,0,12.1-5l9.4,9.3a3,3,0,0,0,4.3,0l12.1-12.2a2.7,2.7,0,0,0,.9-2.1,2.9,2.9,0,0,0-.9-2.1L205,150a47.5,47.5,0,0,0,5-12.1h13.2a3,3,0,0,0,3-3V117.6A3,3,0,0,0,223.2,114.6Zm-3,17.3H207.6a3,3,0,0,0-2.9,2.4,40.2,40.2,0,0,1-6,14.5,3,3,0,0,0,.3,3.8l9,8.9-8,8-8.9-9a3,3,0,0,0-3.8-.3,42.1,42.1,0,0,1-14.5,6,3,3,0,0,0-2.4,2.9v12.7H159.1V169.1a3,3,0,0,0-2.4-2.9,42.1,42.1,0,0,1-14.5-6,3,3,0,0,0-3.8.3l-8.9,9-8-8,8.9-8.9a2.9,2.9,0,0,0,.4-3.8,40.2,40.2,0,0,1-6-14.5,3,3,0,0,0-2.9-2.4H109.2V120.6h12.7a3,3,0,0,0,2.9-2.4,40.2,40.2,0,0,1,6-14.5,2.9,2.9,0,0,0-.4-3.8L121.5,91l8-8,8.9,9a3,3,0,0,0,3.8.3,42.1,42.1,0,0,1,14.5-6,3,3,0,0,0,2.4-2.9V70.8h11.3V83.4a3,3,0,0,0,2.4,2.9,42.1,42.1,0,0,1,14.5,6,3,3,0,0,0,3.8-.3l8.9-9,8,8-9,8.9a3,3,0,0,0-.3,3.8,40.2,40.2,0,0,1,6,14.5,3,3,0,0,0,2.9,2.4h12.6Z" transform="translate(-13.7 -52.3)"/><path d="M98.2,68.2h-9a3.1,3.1,0,0,0-3,3,3,3,0,0,0,3,3h9a2.9,2.9,0,0,0,3-3A3,3,0,0,0,98.2,68.2Z" transform="translate(-13.7 -52.3)"/><path d="M88.6,127.9l-34.5-26a3,3,0,0,0-3.6-.1L15,127.8a3,3,0,0,0,1.8,5.4,2.6,2.6,0,0,0,1.7-.5l7.3-5.3v31.8a2.9,2.9,0,0,0,3,3h46a3,3,0,0,0,3-3v-32l7.1,5.4a3,3,0,0,0,3.7-4.7Zm-16.8-4.7v33h-40V123l20.5-15,19.6,14.7Z" transform="translate(-13.7 -52.3)"/></svg>