<svg xmlns="http://www.w3.org/2000/svg" viewBox="0 0 126 146"><title>33</title><path d="M113.6,66.6H84.9a11,11,0,0,0-11,11v17a11,11,0,0,0,11,11h28.7a11,11,0,0,0,11-11v-17A11,11,0,0,0,113.6,66.6Zm5,28a5,5,0,0,1-5,5H84.9a5,5,0,0,1-5-5v-17a5,5,0,0,1,5-5h28.7a5,5,0,0,1,5,5Z" transform="translate(-57 -47)"/><path d="M182.4,100.8,156.3,67.7a3,3,0,0,0-4.2-.5,2.9,2.9,0,0,0-.5,4.2l12,15.3v19.9a2.9,2.9,0,0,0,.7,1.8L177,124.6v44.1a10.8,10.8,0,0,1-10.8,10.8h0a10.3,10.3,0,0,1-7.6-3.2,10.7,10.7,0,0,1-3.1-7.6V128a3,3,0,0,0-3-3h-11V58a11,11,0,0,0-11-11H68A11,11,0,0,0,57,58V182a11,11,0,0,0,11,11h62.5a11,11,0,0,0,11-11V131h8v37.7a16.6,16.6,0,0,0,4.8,11.8,16.7,16.7,0,0,0,11.9,5h0A16.8,16.8,0,0,0,183,168.7V102.6A2.8,2.8,0,0,0,182.4,100.8ZM135.5,182a5,5,0,0,1-5,5H68a5,5,0,0,1-5-5V58a5,5,0,0,1,5-5h62.5a5,5,0,0,1,5,5Zm34.1-76.5V94.3l7.4,9.4v11.2Z" transform="translate(-57 -47)"/></svg>