<svg xmlns="http://www.w3.org/2000/svg" viewBox="0 0 170 170"><title>75</title><path d="M202,168.6H71.4V153.4h0V129.1h0V104.9h0V80.6h0V56.3h0V38a3,3,0,0,0-3-3H38a2.9,2.9,0,0,0-3,3V202a2.9,2.9,0,0,0,3,3H202a2.9,2.9,0,0,0,3-3V171.6A3,3,0,0,0,202,168.6ZM199,199H41V41H65.4V53.2H56.2a3.1,3.1,0,0,0-3,3,3,3,0,0,0,3,3h9.2V77.5H56.2a3.1,3.1,0,0,0-3,3,3,3,0,0,0,3,3h9.2v18.3H56.2a3.1,3.1,0,0,0-3,3,3,3,0,0,0,3,3h9.2v18.3H56.2a3.1,3.1,0,0,0-3,3,3,3,0,0,0,3,3h9.2v18.3H56.2a3.1,3.1,0,0,0-3,3,3,3,0,0,0,3,3h9.2v15.2a2.9,2.9,0,0,0,3,3H83.6v9.2a3,3,0,0,0,6,0v-9.2h18.3v9.2a3,3,0,0,0,6,0v-9.2h18.3v9.2a3,3,0,0,0,3,3,3.1,3.1,0,0,0,3-3v-9.2h18.3v9.2a3,3,0,0,0,3,3,3.1,3.1,0,0,0,3-3v-9.2h18.3v9.2a3,3,0,0,0,3,3,3.1,3.1,0,0,0,3-3v-9.2H199Z" transform="translate(-35 -35)"/><path d="M202,35H90a2.9,2.9,0,0,0-3,3V84.8a3,3,0,0,0,3,3h66.4a5.3,5.3,0,0,1,5.3,5.3V154a2.9,2.9,0,0,0,3,3H202a2.9,2.9,0,0,0,3-3V38A2.9,2.9,0,0,0,202,35Zm-3,116H167.7V93.1a11.4,11.4,0,0,0-11.3-11.3H93V41H199Z" transform="translate(-35 -35)"/><path d="M97.9,96.5a7.9,7.9,0,0,0-7.9,8v30a12.9,12.9,0,0,0,12.8,13h34.4a12.9,12.9,0,0,0,12.8-13v-30a7.9,7.9,0,1,0-15.8,0v2H105.8v-2A7.9,7.9,0,0,0,97.9,96.5Zm42.3,8h0a1.9,1.9,0,0,1,1.9-2,2,2,0,0,1,1.9,2v30a6.9,6.9,0,0,1-6.8,7H102.8a6.9,6.9,0,0,1-6.8-7v-30a2,2,0,0,1,1.9-2,1.9,1.9,0,0,1,1.9,2v30a3,3,0,0,0,3,3h34.4a3,3,0,0,0,3-3Zm-6,8v19H105.8v-19Z" transform="translate(-35 -35)"/></svg>