<svg xmlns="http://www.w3.org/2000/svg" viewBox="0 0 167.5 166"><title>87</title><path d="M200.8,74a2.9,2.9,0,0,0-3,3v43.9a10.8,10.8,0,0,1-3.4,7.8,11.4,11.4,0,0,1-8.1,3.3h-.1a11.3,11.3,0,0,1-11.4-11.1V77a3,3,0,0,0-3-3,2.9,2.9,0,0,0-3,3v44a17.1,17.1,0,0,0,14.4,16.7v14c0,11.2-8.6,20.3-19.3,20.3H148.2V61.8A24.7,24.7,0,0,0,123.6,37H60.9A24.8,24.8,0,0,0,36.2,61.8V178.2A24.8,24.8,0,0,0,60.9,203h62.7a24.7,24.7,0,0,0,24.6-24.8V178h15.7c14,0,25.3-11.8,25.3-26.3v-14a17.6,17.6,0,0,0,9.4-4.7,16.8,16.8,0,0,0,5.2-12.1V77A3,3,0,0,0,200.8,74ZM142.2,178.2A18.7,18.7,0,0,1,123.6,197H60.9a18.8,18.8,0,0,1-18.7-18.8V61.8A18.8,18.8,0,0,1,60.9,43h62.7a18.7,18.7,0,0,1,18.6,18.8Z" transform="translate(-36.3 -37)"/><path d="M125.2,63.5h-66a3,3,0,0,0-3,3v27a3,3,0,0,0,3,3h66a2.9,2.9,0,0,0,3-3v-27A2.9,2.9,0,0,0,125.2,63.5Zm-3,27h-60v-21h60Z" transform="translate(-36.3 -37)"/><path d="M114.4,136.1a3.1,3.1,0,0,0,0-4.2,3,3,0,0,0-4.3,0L108,134a24.9,24.9,0,0,0-15.8-5.5h0a25.4,25.4,0,0,0-18,7.5,24.8,24.8,0,0,0-7.4,18,25.6,25.6,0,0,0,5.4,15.8l-2.1,2.1a3.1,3.1,0,0,0,0,4.2,3,3,0,0,0,2.1.9,3.1,3.1,0,0,0,2.2-.9l2.1-2.1a24.6,24.6,0,0,0,15.7,5.5h.1a25.3,25.3,0,0,0,18-7.5l-2.1-2.1,2.1,2.1a25.4,25.4,0,0,0,7.5-18,25.7,25.7,0,0,0-5.5-15.8ZM72.8,154a19.5,19.5,0,0,1,19.4-19.5h0a18.9,18.9,0,0,1,11.5,3.8L76.5,165.5A19.5,19.5,0,0,1,72.8,154Zm39,0a19.5,19.5,0,0,1-5.8,13.8,19,19,0,0,1-13.7,5.7h-.1a18.8,18.8,0,0,1-11.4-3.8L108,142.5A19.6,19.6,0,0,1,111.8,154Z" transform="translate(-36.3 -37)"/><path d="M81.8,116a3,3,0,1,0,0-6h-12a3,3,0,0,0,0,6Z" transform="translate(-36.3 -37)"/><path d="M114.8,116a3,3,0,1,0,0-6h-12a3,3,0,0,0,0,6Z" transform="translate(-36.3 -37)"/></svg>