<svg xmlns="http://www.w3.org/2000/svg" viewBox="0 0 177.5 174"><title>88</title><path d="M58.3,173H38.9L49,151.3a3,3,0,0,0-1.5-4,3,3,0,0,0-4,1.4l-12,26a3.3,3.3,0,0,0,.2,2.9,3,3,0,0,0,2.6,1.4H53.6L43.5,200.7a3,3,0,0,0,1.5,4,2.7,2.7,0,0,0,1.2.3,3,3,0,0,0,2.8-1.7l12-26a3.3,3.3,0,0,0-.2-2.9A3,3,0,0,0,58.3,173Z" transform="translate(-31.2 -33)"/><path d="M205.8,64H191.3V38a3,3,0,0,0-3-3,2.9,2.9,0,0,0-3,3V64h-30V37a3,3,0,0,0-3-3,2.9,2.9,0,0,0-3,3V64H134.8a2.9,2.9,0,0,0-3,3V82a3.1,3.1,0,0,0,.7,2l21,22.9V124a2.9,2.9,0,0,0,3,3H184a2.9,2.9,0,0,0,3-3V106.9L208,84a3.2,3.2,0,0,0,.8-2V67A3,3,0,0,0,205.8,64Zm-3,16.8-21,22.9a3.2,3.2,0,0,0-.8,2V121H159.5V105.7a3.2,3.2,0,0,0-.8-2L137.8,80.8V70h65Z" transform="translate(-31.2 -33)"/><path d="M175.8,134h-11a3,3,0,0,0,0,6h2.5v33a28,28,0,1,1-56,0V133.7a14,14,0,0,0,0-27.4V67a34,34,0,0,0-68,0v63H40.8a3,3,0,0,0,0,6h11a3,3,0,1,0,0-6H49.3V67a28,28,0,0,1,56,0v39.3a14,14,0,0,0,0,27.4V173a34,34,0,1,0,68,0V140h2.5a3,3,0,0,0,0-6Zm-75.5-14a8,8,0,1,1,8,8A8,8,0,0,1,100.3,120Z" transform="translate(-31.2 -33)"/><path d="M175.8,83h-11a2.9,2.9,0,0,0-3,3,3,3,0,0,0,3,3h11a3.1,3.1,0,0,0,3-3A3,3,0,0,0,175.8,83Z" transform="translate(-31.2 -33)"/></svg>