<svg xmlns="http://www.w3.org/2000/svg" viewBox="0 0 198 186"><title>90</title><path d="M214.5,209H103l-6-81,46.1,26.7a7.3,7.3,0,0,0,3.5.9,6.9,6.9,0,0,0,4.9-11.7l-29.1-29.7a2.8,2.8,0,0,0-1.9-.9L99,111.6a12.4,12.4,0,0,0-5.6-7.1V47.2a6.9,6.9,0,0,0-10.3-6,6.9,6.9,0,0,0-3.2,4.1L68.7,85.4a3.1,3.1,0,0,0,.2,2.1l9.2,19.1a12.2,12.2,0,0,0-3.4,8l-50.3,29a7,7,0,0,0-3.2,7.6,6.8,6.8,0,0,0,3.2,4.2,6,6,0,0,0,3.5,1l1.7-.2,40.3-10.3a3,3,0,0,0,1.7-1.2l5.8-8.5L71.2,209H41.3a3,3,0,0,0,0,6H214.5a3,3,0,0,0,0-6Zm-67.3-60.9a.9.9,0,0,1-1.1,1.4l-48.4-28a13.7,13.7,0,0,0,1.5-3.8l19.7,1.5Zm-53.7-33a6.4,6.4,0,0,1-6.4,6.4h0a6.4,6.4,0,1,1,6.4-6.4ZM74.8,85.9l10.9-39c.1-.3.3-.5.4-.5a.8.8,0,0,1,.7-.1.8.8,0,0,1,.6.9v55.5H87a12.1,12.1,0,0,0-3.8.6Zm-7.5,54.5-39.2,10h-.7a1.5,1.5,0,0,1-.4-.6.9.9,0,0,1,.4-.9L76,120.7a10,10,0,0,0,2.4,3.3h0ZM77.2,209l7-81.8a13.6,13.6,0,0,0,2.9.3h0a12.1,12.1,0,0,0,3.8-.6l6,82.1Z" transform="translate(-21 -29)"/><path d="M172.1,43.8a3,3,0,0,0,3-3V32a3,3,0,0,0-6,0v8.8A3,3,0,0,0,172.1,43.8Z" transform="translate(-21 -29)"/><path d="M216,72.9h-8.8a3,3,0,0,0-3,3,3.1,3.1,0,0,0,3,3H216a3,3,0,0,0,3-3A2.9,2.9,0,0,0,216,72.9Z" transform="translate(-21 -29)"/><path d="M140,75.9a2.9,2.9,0,0,0-3-3h-8.8a3,3,0,0,0-3,3,3.1,3.1,0,0,0,3,3H137A3,3,0,0,0,140,75.9Z" transform="translate(-21 -29)"/><path d="M143.6,51.7a3.1,3.1,0,0,0,2.2.9,3,3,0,0,0,2.1-.9,3,3,0,0,0,0-4.3L143.5,43a3.1,3.1,0,0,0-4.2,0,3,3,0,0,0,0,4.3Z" transform="translate(-21 -29)"/><path d="M198.4,52.6a3.1,3.1,0,0,0,2.2-.9l4.3-4.4a3,3,0,0,0,0-4.3,3.1,3.1,0,0,0-4.2,0l-4.4,4.4a3,3,0,0,0,0,4.3A3,3,0,0,0,198.4,52.6Z" transform="translate(-21 -29)"/><path d="M172.2,50.8a24.8,24.8,0,1,0,24.7,24.8A24.8,24.8,0,0,0,172.2,50.8Zm0,43.5a18.8,18.8,0,1,1,18.7-18.7A18.8,18.8,0,0,1,172.2,94.3Z" transform="translate(-21 -29)"/><path d="M172.1,107.9a3,3,0,0,0-3,3v8.8a3,3,0,1,0,6,0v-8.8A3,3,0,0,0,172.1,107.9Z" transform="translate(-21 -29)"/><path d="M143.6,100l-4.3,4.4a3,3,0,0,0,0,4.3,2.7,2.7,0,0,0,2.1.9,3,3,0,0,0,2.1-.9l4.4-4.4a3,3,0,0,0,0-4.3A3.2,3.2,0,0,0,143.6,100Z" transform="translate(-21 -29)"/><path d="M200.6,100a3.2,3.2,0,0,0-4.3,0,3,3,0,0,0,0,4.3l4.4,4.4a3,3,0,0,0,2.1.9,2.7,2.7,0,0,0,2.1-.9,3,3,0,0,0,0-4.3Z" transform="translate(-21 -29)"/></svg>