<svg xmlns="http://www.w3.org/2000/svg" viewBox="0 0 191 184"><title>91</title><path d="M215.1,121,162,29.5a3.1,3.1,0,0,0-4.1-1.1L91,66.8A3,3,0,1,0,94,72l64.3-36.9,50.1,86.3-26,15a3,3,0,0,0,1.4,5.6,2.4,2.4,0,0,0,1.5-.4L214,125.1a2.6,2.6,0,0,0,1.4-1.8A3.1,3.1,0,0,0,215.1,121Z" transform="translate(-24.5 -28)"/><path d="M154.5,63.4a3,3,0,0,0-3.7-2.1L56.2,86.7a2.8,2.8,0,0,0-2.1,3.6,3,3,0,0,0,3.6,2.2l91.8-24.6,25.9,96.6-29,7.7a3,3,0,0,0-2.1,3.7,2.9,2.9,0,0,0,2.9,2.2h.7l31.9-8.5a2.8,2.8,0,0,0,1.8-1.4,2.7,2.7,0,0,0,.3-2.3Z" transform="translate(-24.5 -28)"/><path d="M136.5,158.4V103a2.9,2.9,0,0,0-3-3H27.5a2.9,2.9,0,0,0-3,3V209a2.9,2.9,0,0,0,3,3h106a2.9,2.9,0,0,0,3-3V158.4ZM75.4,206l26.8-26.7,7.6,8.1L91.6,206Zm27.9-100L81.6,127l-7.7-7.8L86.8,106Zm27.2,45.2-21.9-21.7-.3-.2,6.3-6.2,15.9,15.4Zm-49.8,41-6-5.8L103.1,158l5.8,6.1ZM30.5,165.5v-5l4.7-4.4,41.3,40.4-8.1,8Zm47.8,8.9-7.9,7.8L39.5,152l8.3-7.7Zm4.2-4.3-7.8-7.6,29.4-29.1.3.3,7.3,7.3Zm-.8-23L75.8,141l28.6-27.7,5.9,5.6ZM69.7,115l-8.8-9H78.4Zm-17.2-8.9,24.8,25.1-5.7,5.5L42,106H52.5Zm24.9,45.2-6.9,6.9L41.4,129.5l7.7-7.6ZM37.1,133.7l6.4,6.4-13,12.1v-12Zm-6.6,40.4L44,188,30.5,201.7Zm17.7,18.2L61.5,206H34.7Zm65.7-.5L127.4,206H100ZM106.4,175l6.6-6.6,17.5,18.4v13.8Zm.9-21.2,8.6-8.6,14.6,14.4v18.5Zm23.2-23.7-21.7-21,3.1-3h18.6ZM33.7,106l11.2,11.6L30.5,131.8V106Z" transform="translate(-24.5 -28)"/></svg>