<svg xmlns="http://www.w3.org/2000/svg" viewBox="0 0 19.502 15.5"><title>32</title><path d="M21.542,11.176C19.678,7.729,16,4.25,12,4.25S4.322,7.729,2.459,11.175a1.726,1.726,0,0,0,0,1.649C4.322,16.271,8,19.75,12,19.75s7.678-3.479,9.542-6.926A1.732,1.732,0,0,0,21.542,11.176Zm-1.32.935C18.268,15.726,14.887,18.25,12,18.25s-6.268-2.524-8.222-6.139h0a.229.229,0,0,1,0-.22C5.732,8.275,9.113,5.75,12,5.75s6.268,2.525,8.222,6.139A.23.23,0,0,1,20.222,12.111Z" transform="translate(-2.249 -4.25)"/><path d="M12,8.25A3.75,3.75,0,1,0,15.75,12,3.754,3.754,0,0,0,12,8.25Zm0,6A2.25,2.25,0,1,1,14.25,12,2.253,2.253,0,0,1,12,14.25Z" transform="translate(-2.249 -4.25)"/></svg>