<svg xmlns="http://www.w3.org/2000/svg" viewBox="0 0 19.3 13.5"><title>34</title><path d="M19.6,9.4V8a2.8,2.8,0,0,0-2.7-2.8h-.8A2.8,2.8,0,0,0,13.4,8V9.3H10.6V8A2.8,2.8,0,0,0,7.9,5.2H7.1A2.8,2.8,0,0,0,4.4,8V9.4a2.7,2.7,0,0,0-2,2.6v4a2.7,2.7,0,0,0,2.7,2.7H18.9A2.7,2.7,0,0,0,21.6,16V12A2.7,2.7,0,0,0,19.6,9.4ZM14.9,8a1.2,1.2,0,0,1,1.2-1.2h.8A1.2,1.2,0,0,1,18.1,8V9.2H14.9Zm-9,0A1.2,1.2,0,0,1,7.1,6.8h.8A1.2,1.2,0,0,1,9.1,8V9.2H5.9Zm14.2,8a1.2,1.2,0,0,1-1.2,1.2H5.1A1.2,1.2,0,0,1,3.9,16V12a1.2,1.2,0,0,1,1.2-1.2H18.9A1.2,1.2,0,0,1,20.1,12Z" transform="translate(-2.4 -5.3)"/></svg>