<svg xmlns="http://www.w3.org/2000/svg" viewBox="0 0 17.5 17.4"><title>22</title><path d="M20,19.2H4a.8.8,0,0,0-.8.7.8.8,0,0,0,.8.8H20a.7.7,0,0,0,.7-.8A.7.7,0,0,0,20,19.2Z" transform="translate(-3.3 -3.3)"/><path d="M4.9,17.1H7.4c.2,0,.4,0,.5-.2l8-8H16l1.5-1.5a2,2,0,0,0,0-2.5L16.4,3.8a1.8,1.8,0,0,0-2.5,0L12.5,5.2h0L4.4,13.4a.5.5,0,0,0-.3.5v2.5A.8.8,0,0,0,4.9,17.1ZM15,4.9a.2.2,0,0,1,.3,0L16.4,6a.2.2,0,0,1,0,.3l-1,1L14,5.9ZM5.6,14.2l7.3-7.3,1.5,1.5L7.1,15.6H5.6Z" transform="translate(-3.3 -3.3)"/></svg>