<svg xmlns="http://www.w3.org/2000/svg" viewBox="0 0 18.5 18.5"><title>49</title><path d="M16,6.83A1.13,1.13,0,1,0,17.17,8,1.13,1.13,0,0,0,16,6.83Zm0,1.5a.38.38,0,0,1,0-.75.38.38,0,1,1,0,.75Z" transform="translate(-2.75 -2.75)"/><path d="M18.4,2.75H14a2.88,2.88,0,0,0-2,.83L3.58,12h0a2.81,2.81,0,0,0-.83,2,2.88,2.88,0,0,0,.83,2L8,20.42a2.88,2.88,0,0,0,2,.83,2.81,2.81,0,0,0,2-.84L20.41,12a2.83,2.83,0,0,0,.84-2V5.6A2.86,2.86,0,0,0,18.4,2.75Zm-7.46,16.6a1.35,1.35,0,0,1-1.91,0L4.64,15a1.35,1.35,0,0,1,0-1.9h0L6.3,11.39l6.3,6.3ZM19.75,10a1.31,1.31,0,0,1-.4,1l-5.69,5.69-6.3-6.3,5.69-5.69a1.36,1.36,0,0,1,1-.39H18.4A1.36,1.36,0,0,1,19.75,5.6Z" transform="translate(-2.75 -2.75)"/></svg>