<svg xmlns="http://www.w3.org/2000/svg" viewBox="0 0 19.5 19.5"><title>44</title><path d="M19,13.75H16.5a2.75,2.75,0,0,0-2.75,2.75V19a2.75,2.75,0,0,0,2.75,2.75H19A2.75,2.75,0,0,0,21.75,19V16.5A2.75,2.75,0,0,0,19,13.75ZM20.25,19A1.25,1.25,0,0,1,19,20.25H16.5A1.25,1.25,0,0,1,15.25,19V16.5a1.25,1.25,0,0,1,1.25-1.25H19a1.25,1.25,0,0,1,1.25,1.25Z" transform="translate(-2.25 -2.25)"/><path d="M7.5,13.75H5A2.75,2.75,0,0,0,2.25,16.5V19A2.75,2.75,0,0,0,5,21.75H7.5A2.75,2.75,0,0,0,10.25,19V16.5A2.75,2.75,0,0,0,7.5,13.75ZM8.75,19A1.25,1.25,0,0,1,7.5,20.25H5A1.25,1.25,0,0,1,3.75,19V16.5A1.25,1.25,0,0,1,5,15.25H7.5A1.25,1.25,0,0,1,8.75,16.5Z" transform="translate(-2.25 -2.25)"/><path d="M19,2.25H16.5A2.75,2.75,0,0,0,13.75,5V7.5a2.75,2.75,0,0,0,2.75,2.75H19A2.75,2.75,0,0,0,21.75,7.5V5A2.75,2.75,0,0,0,19,2.25ZM20.25,7.5A1.25,1.25,0,0,1,19,8.75H16.5A1.25,1.25,0,0,1,15.25,7.5V5A1.25,1.25,0,0,1,16.5,3.75H19A1.25,1.25,0,0,1,20.25,5Z" transform="translate(-2.25 -2.25)"/><path d="M7.5,2.25H5A2.75,2.75,0,0,0,2.25,5V7.5A2.75,2.75,0,0,0,5,10.25H7.5A2.75,2.75,0,0,0,10.25,7.5V5A2.75,2.75,0,0,0,7.5,2.25ZM8.75,7.5A1.25,1.25,0,0,1,7.5,8.75H5A1.25,1.25,0,0,1,3.75,7.5V5A1.25,1.25,0,0,1,5,3.75H7.5A1.25,1.25,0,0,1,8.75,5Z" transform="translate(-2.25 -2.25)"/></svg>