<svg xmlns="http://www.w3.org/2000/svg" viewBox="0 0 19.5 19.5"><title>13</title><path d="M12,7a3.2,3.2,0,0,0-3.2,3.2,3.2,3.2,0,1,0,6.4,0A3.2,3.2,0,0,0,12,7Zm0,5a1.7,1.7,0,0,1-1.7-1.8,1.7,1.7,0,0,1,3.4,0A1.7,1.7,0,0,1,12,12Z" transform="translate(-2.3 -2.3)"/><path d="M12,2.2A9.8,9.8,0,1,0,21.8,12,9.8,9.8,0,0,0,12,2.2Zm0,18a8.5,8.5,0,0,1-4.2-1.1,5.5,5.5,0,0,1,1.9-1.8,4.8,4.8,0,0,1,3.7-.3,4.9,4.9,0,0,1,2.8,2.1A8.8,8.8,0,0,1,12,20.2Zm5.4-2a6.7,6.7,0,0,0-3.5-2.7,6.5,6.5,0,0,0-7.3,2.7,8.2,8.2,0,1,1,10.8,0Z" transform="translate(-2.3 -2.3)"/></svg>