<svg xmlns="http://www.w3.org/2000/svg" viewBox="0 0 18.5 18.49"><title>45</title><path d="M15.71,10.72s0,0,0-.06a.35.35,0,0,0,.06-.14.4.4,0,0,0,0-.15s0,0,0-.06,0-.05,0-.07a.5.5,0,0,0,0-.16.61.61,0,0,0,0-.12.83.83,0,0,0-.08-.12l-.1-.11s0,0-.05-.05,0,0-.07,0l-.13-.05a.45.45,0,0,0-.16,0l-.06,0H11.17V3.5s0,0,0-.07a.4.4,0,0,0,0-.15,1.12,1.12,0,0,0-.05-.13A.76.76,0,0,0,11,3a.57.57,0,0,0-.11-.11.1.1,0,0,0,0-.05l-.07,0-.14-.06-.14,0h-.14l-.15,0a.52.52,0,0,0-.13.06L10,2.92,9.85,3l0,.05L2.88,13.26l0,.06-.06.14,0,.15s0,0,0,.07,0,0,0,.07l0,.15,0,.12a.62.62,0,0,0,.08.12l.11.11.05.05.09,0,.07,0a.75.75,0,0,0,.26,0H7.41v6s0,0,0,.06l0,.15a.52.52,0,0,0,.06.13.41.41,0,0,0,.07.11.46.46,0,0,0,.12.12s0,0,0,0l.07,0,.1,0a.54.54,0,0,0,.22.05h0a.66.66,0,0,0,.32-.09l.07,0a.61.61,0,0,0,.19-.17l0,0Zm-6.8,3a.75.75,0,0,0-.75-.75H4.92l4.75-7v4.35a.53.53,0,0,0,0,.12,1.13,1.13,0,0,0,0,.18l0,.06a1,1,0,0,0,.11.17l.09.06a.65.65,0,0,0,.15.1.47.47,0,0,0,.16,0l.13,0h3.25l-4.76,7Z" transform="translate(-2.75 -2.75)"/><path d="M21.15,20.11l-1.1-1.88s0,0,0,0l-2.33-4,0,0-.11-.11a.52.52,0,0,0-.11-.1l0,0-.09,0-.14-.05h-.29l-.15.05s-.06,0-.08,0l0,0-.1.1-.11.11,0,0L13,20.11a.75.75,0,0,0,1.3.75l.93-1.59h3.73l.93,1.59a.75.75,0,0,0,1.3-.75Zm-5.09-2.34,1-1.7,1,1.7Z" transform="translate(-2.75 -2.75)"/></svg>